<svg xmlns="http://www.w3.org/2000/svg" width="64" height="64" viewBox="0 0 64 64" fill="none">
  <ellipse cx="32" cy="32" rx="27" ry="11" transform="rotate(-28 32 32)" stroke="#3A5A8C" stroke-width="2"></ellipse>
  <g fill="url(#gd)">
    <path d="M32 6 L35.5 28.5 L32 32 L28.5 28.5 Z"></path>
    <path d="M32 58 L35.5 35.5 L32 32 L28.5 35.5 Z"></path>
    <path d="M6 32 L28.5 35.5 L32 32 L28.5 28.5 Z"></path>
    <path d="M58 32 L35.5 35.5 L32 32 L35.5 28.5 Z"></path>
    <path d="M15 15 L30 30 L32 32 L28 28.5 Z" opacity="0.85"></path>
    <path d="M49 49 L34 34 L32 32 L36 35.5 Z" opacity="0.85"></path>
  </g>
  <circle cx="32" cy="32" r="4" fill="#DCEBFF"></circle>
  <circle cx="52" cy="12" r="2.5" fill="#7FB4FF"></circle>
  <circle cx="56" cy="21" r="1.5" fill="#4A5A70"></circle>
  <defs><linearGradient id="gd" x1="10" y1="10" x2="54" y2="54" gradientUnits="userSpaceOnUse">
    <stop offset="0" stop-color="#7FB4FF"></stop><stop offset="1" stop-color="#2B6BE4"></stop>
  </linearGradient></defs></svg>
